<?xml version="1.0" encoding="UTF-8"?>
<svg version="1.1" xmlns="http://www.w3.org/2000/svg" width="128" height="128">
<path d="M0 0 C7.32603588 4.17322401 12.11056328 12.17447235 17.0859375 18.76171875 C21.13152241 23.91822948 21.13152241 23.91822948 26.796875 26.8515625 C29.2486957 27.09397415 31.54492267 27.17426436 34 27 C34 27.99 34 28.98 34 30 C31.69 30 29.38 30 27 30 C26.9175 30.721875 26.835 31.44375 26.75 32.1875 C26 35 26 35 24.1875 37.25 C21.31783112 40.85758373 19.7375336 44.7578302 18 49 C15.375 49.4375 15.375 49.4375 12 49 C8.60828269 46.23984384 6.37269333 43.25118475 5.125 39.0625 C5.08375 38.381875 5.0425 37.70125 5 37 C3.35 37.66 1.7 38.32 0 39 C1.87391468 43.61673952 3.77311011 47.91742647 6.75 51.9375 C9 55 9 55 9 57 C14.94 57 20.88 57 27 57 C27 58.32 27 59.64 27 61 C-10.95 61 -48.9 61 -88 61 C-87.67 59.68 -87.34 58.36 -87 57 C-85.515 56.505 -85.515 56.505 -84 56 C-82.42910202 52.70558125 -81.08834733 49.39413368 -79.78125 45.99023438 C-77.93781777 41.45223566 -76.31449954 38.67723832 -72 36 C-71.34 36 -70.68 36 -70 36 C-69.87625 34.783125 -69.7525 33.56625 -69.625 32.3125 C-69.21108694 28.93520941 -68.45426549 26.10243305 -67 23 C-67.94875 22.54625 -68.8975 22.0925 -69.875 21.625 C-73 20 -73 20 -75 18 C-75.55085162 13.15250576 -74.39332242 10.18831424 -72 6 C-73.32 5.34 -74.64 4.68 -76 4 C-75.67 3.34 -75.34 2.68 -75 2 C-70.125 2.875 -70.125 2.875 -69 4 C-68.68878514 8.46074638 -69.41406716 11.8369263 -71 16 C-62.95373247 20.02313377 -51.91372014 15.58181404 -43.91845703 13.00732422 C-34.36033888 9.70827825 -24.99013553 5.8498117 -15.62524414 2.04394531 C-10.29160896 -0.07700922 -5.71079061 -1.01128584 0 0 Z M-14.6875 5.4375 C-15.77683838 5.8404126 -15.77683838 5.8404126 -16.88818359 6.25146484 C-20.9640262 7.77655753 -24.99859399 9.39805781 -29.02734375 11.04296875 C-29.86813477 11.38618164 -30.70892578 11.72939453 -31.57519531 12.08300781 C-33.27217562 12.77648847 -34.96814628 13.47244504 -36.66308594 14.17089844 C-42.99098883 16.7291968 -49.25829126 18.52324074 -55.93359375 19.91796875 C-59.6939479 21.24487079 -61.47348293 22.94636786 -64 26 C-64.97510428 27.93547777 -64.97510428 27.93547777 -65.3125 29.8125 C-65.6528125 31.3903125 -65.6528125 31.3903125 -66 33 C-64.02 32.01 -62.04 31.02 -60 30 C-62.09023913 34.07767962 -63.8599294 35.78291223 -67.9375 37.8125 C-73.10565921 40.73134392 -75.04529914 43.49956269 -77 49 C-77.4125 49.928125 -77.825 50.85625 -78.25 51.8125 C-79.16216216 54.08755631 -79.16216216 54.08755631 -79 57 C-77.68 57 -76.36 57 -75 57 C-74.5875 55.96875 -74.175 54.9375 -73.75 53.875 C-69.67545976 46.748154 -60.35674163 44.40620525 -53 41.9375 C-47.5770602 40.05702735 -45.4572447 37.6959027 -42.75 32.6875 C-42.5025 32.130625 -42.255 31.57375 -42 31 C-41.34 31 -40.68 31 -40 31 C-40.69941596 34.14737182 -41.76078698 37.02588876 -43 40 C-39.7 40 -36.4 40 -33 40 C-33.33 40.99 -33.66 41.98 -34 43 C-35.98 43 -37.96 43 -40 43 C-40.88920498 45.97989526 -41.1886325 47.52157322 -40.03125 50.45703125 C-38.4733718 52.85346124 -37.02836372 54.98026761 -35 57 C-31.24356576 57.75413353 -31.24356576 57.75413353 -28 57 C-27.67 56.01 -27.34 55.02 -27 54 C-27.47050781 53.26394531 -27.94101562 52.52789062 -28.42578125 51.76953125 C-30.44747305 48.21275833 -30.30132391 45.74721944 -30.1875 41.6875 C-30.14689453 39.80611328 -30.14689453 39.80611328 -30.10546875 37.88671875 C-30.07066406 36.93410156 -30.03585938 35.98148438 -30 35 C-29.01 34.67 -28.02 34.34 -27 34 C-27.10699219 34.79664062 -27.21398438 35.59328125 -27.32421875 36.4140625 C-28.02429951 42.60187309 -28.44828157 46.56232521 -25 52 C-24.3125 54.875 -24.3125 54.875 -24 57 C-22.68 57 -21.36 57 -20 57 C-20.2371875 56.40574219 -20.474375 55.81148437 -20.71875 55.19921875 C-22.10752634 50.73430283 -22.59314509 48.1701402 -20.421875 43.88671875 C-18.40322817 41.08748008 -16.41734442 38.46419218 -14 36 C-13.34 36 -12.68 36 -12 36 C-13.12690894 39.38072683 -14.50564394 41.60390041 -16.8125 44.25 C-18.22808746 45.96457867 -18.22808746 45.96457867 -19 48 C-18.52395165 51.3918445 -17.41590813 53.82641281 -16 57 C-11.38 57 -6.76 57 -2 57 C-3.62339805 55.29115995 -5.29319053 53.62553283 -7 52 C-7.66 52 -8.32 52 -9 52 C-9.495 49.03 -9.495 49.03 -10 46 C-9.34 45.67 -8.68 45.34 -8 45 C-7.690625 45.86625 -7.690625 45.86625 -7.375 46.75 C-6.0500771 49.2798749 -6.0500771 49.2798749 -2.9375 51 C0 53 0 53 0.875 55.25 C0.91625 55.8275 0.9575 56.405 1 57 C2.32 56.67 3.64 56.34 5 56 C4.57847656 55.5153125 4.15695313 55.030625 3.72265625 54.53125 C-0.29937137 49.61018091 -1.77284549 46.3603264 -2 40 C-2.53625 40.309375 -3.0725 40.61875 -3.625 40.9375 C-6.3984957 42.17827439 -9.00042837 42.5909675 -12 43 C-6.47954727 37.19078512 -0.98526991 34.42778232 7 34 C7.39832031 34.93972656 7.39832031 34.93972656 7.8046875 35.8984375 C8.15789062 36.71570313 8.51109375 37.53296875 8.875 38.375 C9.22304687 39.18710938 9.57109375 39.99921875 9.9296875 40.8359375 C10.92446067 43.13802299 10.92446067 43.13802299 13 45 C13.99 45 14.98 45 16 45 C16.42152344 44.15695313 16.84304687 43.31390625 17.27734375 42.4453125 C19.18489583 38.63020833 21.09244792 34.81510417 23 31 C19.04 31.495 19.04 31.495 15 32 C15 31.01 15 30.02 15 29 C16.65 28.67 18.3 28.34 20 28 C19.236875 27.13375 18.47375 26.2675 17.6875 25.375 C13.92651567 21.0021809 10.40068756 16.44861351 6.87182617 11.88818359 C2.77343764 6.16752149 2.77343764 6.16752149 -3.20703125 3.16015625 C-7.51899433 2.97808572 -10.74048752 3.89621378 -14.6875 5.4375 Z M-53 45 C-52.63775446 47.66590081 -52.37047681 48.71815019 -50.1875 50.37890625 C-49.1046875 50.96478516 -49.1046875 50.96478516 -48 51.5625 C-44.10545455 53.68363636 -44.10545455 53.68363636 -43 57 C-41.68 56.67 -40.36 56.34 -39 56 C-39.3609375 55.56429687 -39.721875 55.12859375 -40.09375 54.6796875 C-43.20577001 50.68592849 -44.64165788 48.26159459 -44 43 C-47.79557881 43 -49.62902617 43.50178941 -53 45 Z M-69.5 53.125 C-71.20823168 54.86009434 -71.20823168 54.86009434 -71 57 C-62.75 57 -54.5 57 -46 57 C-48.83902663 53.95557185 -48.83902663 53.95557185 -52.0625 52 C-55 50 -55 50 -57 47 C-61.58946478 47 -66.12018838 50.25216012 -69.5 53.125 Z " fill="#096ECA" transform="translate(91,57)"/>
<path d="M0 0 C4.62 0 9.24 0 14 0 C14 21.45 14 42.9 14 65 C9.54286436 61.43429149 6.91033312 58.43487226 3.6484375 53.92578125 C2.05808148 51.73321109 2.05808148 51.73321109 -1 51 C-1 38.13 -1 25.26 -1 12 C-4.3 12 -7.6 12 -11 12 C-11 21.57 -11 31.14 -11 41 C-15 41 -19 41 -23 41 C-23.495 41.99 -23.495 41.99 -24 43 C-24.99 43 -25.98 43 -27 43 C-27 34.75 -27 26.5 -27 18 C-30.3 18 -33.6 18 -37 18 C-37 27.57 -37 37.14 -37 47 C-39.31 47.66 -41.62 48.32 -44 49 C-47.78065542 50.09283679 -47.78065542 50.09283679 -50 53 C-50.99 53 -51.98 53 -53 53 C-53 51.35 -53 49.7 -53 48 C-56.3 48 -59.6 48 -63 48 C-63 50.97 -63 53.94 -63 57 C-64.32 56.67 -65.64 56.34 -67 56 C-67.02698189 54.37509046 -67.04638757 52.75005367 -67.0625 51.125 C-67.07410156 50.22007813 -67.08570313 49.31515625 -67.09765625 48.3828125 C-67 46 -67 46 -66 44 C-61.38 44 -56.76 44 -52 44 C-52 41.03 -52 38.06 -52 35 C-48.04 35 -44.08 35 -40 35 C-40.01160156 33.56785156 -40.02320312 32.13570312 -40.03515625 30.66015625 C-40.04453255 28.79427213 -40.05363292 26.92838661 -40.0625 25.0625 C-40.07087891 24.11697266 -40.07925781 23.17144531 -40.08789062 22.19726562 C-40.09272461 20.84858398 -40.09272461 20.84858398 -40.09765625 19.47265625 C-40.10551147 18.22367554 -40.10551147 18.22367554 -40.11352539 16.94946289 C-40 15 -40 15 -39 14 C-36.66839945 13.90090698 -34.33370058 13.87029496 -32 13.875 C-30.72125 13.87242188 -29.4425 13.86984375 -28.125 13.8671875 C-25 14 -25 14 -24 15 C-24 16.65 -24 18.3 -24 20 C-20.7 20 -17.4 20 -14 20 C-14 16.37 -14 12.74 -14 9 C-9.38 9 -4.76 9 0 9 C0 6.03 0 3.06 0 0 Z " fill="#0C7ED3" transform="translate(103,10)"/>
</svg>
